<svg width="180" height="180" viewBox="0 0 180 180" fill="none" xmlns="http://www.w3.org/2000/svg">
<circle cx="90" cy="90" r="90" fill="#2D75DD"/>
<mask id="mask0_504_5357" style="mask-type:alpha" maskUnits="userSpaceOnUse" x="0" y="0" width="180" height="180">
<circle cx="90" cy="90" r="90" fill="#2D75DD"/>
</mask>
<g mask="url(#mask0_504_5357)">
<rect x="80.5848" y="147.223" width="19.1136" height="8.56818" fill="#ACC7FF"/>
<path fill-rule="evenodd" clip-rule="evenodd" d="M33.8121 114.541C33.8121 118.36 36.5187 121.546 40.1182 122.287C45.5181 136.847 59.533 147.223 75.9712 147.223H103.653C119.652 147.223 133.355 137.394 139.055 123.446C143.311 123.318 146.721 119.828 146.721 115.541V103.677C146.721 99.5553 143.568 96.1699 139.542 95.8014C134.169 81.1903 120.128 70.7681 103.653 70.7681H75.9713C59.8477 70.7681 46.0556 80.7503 40.4378 94.8717C36.6801 95.4849 33.8121 98.7461 33.8121 102.677V114.541Z" fill="white"/>
<rect x="48.9486" y="87.9045" width="78.4318" height="42.1818" rx="21.0909" fill="#ACC7FF"/>
<circle cx="69.3804" cy="108.995" r="5.93182" fill="#2D75DD"/>
<circle cx="107.607" cy="108.995" r="5.93182" fill="#2D75DD"/>
<path d="M58.8348 182.745C58.8348 165.637 72.7038 151.768 89.8121 151.768C106.92 151.768 120.789 165.637 120.789 182.745H58.8348Z" fill="white"/>
<path fill-rule="evenodd" clip-rule="evenodd" d="M114.548 182.511H121.138C121.138 170.943 114.798 160.856 105.402 155.536C110.937 159.47 114.548 165.935 114.548 173.242V182.511Z" fill="#ACC7FF"/>
<path fill-rule="evenodd" clip-rule="evenodd" d="M98.2438 147.223H104.153C120.161 147.223 133.87 137.383 139.564 123.423C143.623 123.087 146.812 119.686 146.812 115.541V103.677C146.812 99.7024 143.88 96.4125 140.061 95.8523C134.702 81.2145 120.647 70.7681 104.153 70.7681H98.2438C119.356 70.7681 136.471 87.883 136.471 108.995C136.471 130.108 119.356 147.223 98.2438 147.223Z" fill="#ACC7FF"/>
<path fill-rule="evenodd" clip-rule="evenodd" d="M91.7894 53.2942C94.0933 52.4799 95.7439 50.2826 95.7439 47.6999C95.7439 44.4238 93.0882 41.7681 89.8121 41.7681C86.5361 41.7681 83.8803 44.4238 83.8803 47.6999C83.8803 50.2826 85.5309 52.4799 87.8348 53.2942V64.8362H86.5167C83.2406 64.8362 80.5848 67.492 80.5848 70.7681H99.0394C99.0394 67.492 96.3836 64.8362 93.1076 64.8362H91.7894V53.2942Z" fill="white"/>
</g>
</svg>
