<svg width="188" height="40" viewBox="0 0 188 40" fill="none" xmlns="http://www.w3.org/2000/svg">
<rect width="188" height="40" rx="20" fill="#ECEDF7"/>
<path d="M38.9452 18.5483C39.127 18.0096 39.19 17.439 39.1302 16.8744C39.0703 16.3098 38.8889 15.7643 38.598 15.2745C38.1669 14.5336 37.5084 13.947 36.7175 13.5994C35.9266 13.2518 35.0443 13.161 34.1977 13.3403C33.8158 12.9157 33.3465 12.5765 32.821 12.3454C32.2955 12.1142 31.7261 11.9965 31.1508 12.0001C30.2853 11.998 29.4415 12.2672 28.741 12.7689C28.0405 13.2705 27.5196 13.9787 27.2533 14.7913C26.6895 14.9051 26.1568 15.1366 25.6909 15.47C25.225 15.8035 24.8368 16.2313 24.552 16.7248C24.1175 17.4636 23.932 18.3195 24.0223 19.1691C24.1126 20.0187 24.4741 20.818 25.0546 21.4517C24.8728 21.9904 24.8098 22.561 24.8696 23.1256C24.9295 23.6902 25.1109 24.2357 25.4017 24.7255C25.8329 25.4664 26.4914 26.0529 27.2823 26.4005C28.0732 26.7482 28.9556 26.8389 29.8021 26.6597C30.184 27.0843 30.6533 27.4235 31.1788 27.6546C31.7042 27.8858 32.2737 28.0035 32.849 27.9999C33.7149 28.0022 34.5592 27.7328 35.2599 27.2309C35.9607 26.7289 36.4817 26.0202 36.7478 25.2072C37.3116 25.0933 37.8443 24.8619 38.3102 24.5284C38.776 24.195 39.1643 23.7671 39.449 23.2736C39.8831 22.5348 40.0681 21.6792 39.9776 20.8299C39.887 19.9807 39.5255 19.1818 38.9452 18.5483ZM32.8503 26.954C32.1394 26.955 31.4509 26.7093 30.905 26.26C30.9296 26.2468 30.9728 26.2234 31.0009 26.2064L34.2297 24.3662C34.3107 24.3208 34.378 24.2548 34.4246 24.1751C34.4713 24.0954 34.4956 24.005 34.495 23.913V19.4217L35.8597 20.1992C35.8668 20.2027 35.873 20.2079 35.8777 20.2144C35.8823 20.2208 35.8852 20.2283 35.8862 20.2361V23.9556C35.8852 24.75 35.5651 25.5116 34.9961 26.0736C34.427 26.6357 33.6554 26.9522 32.8503 26.954ZM26.3211 24.2026C25.9651 23.5955 25.8367 22.8843 25.9586 22.1933C25.9826 22.2075 26.0245 22.2327 26.0545 22.2498L29.2833 24.0899C29.3637 24.1363 29.4553 24.1608 29.5485 24.1608C29.6416 24.1608 29.7332 24.1363 29.8136 24.0899L33.7556 21.8441V23.3992C33.756 23.4071 33.7545 23.415 33.7511 23.4222C33.7477 23.4294 33.7425 23.4357 33.7361 23.4405L30.4722 25.2999C29.774 25.6966 28.9449 25.8039 28.1667 25.5982C27.3885 25.3924 26.7247 24.8905 26.3211 24.2026ZM25.4717 17.2478C25.8263 16.6399 26.3862 16.1746 27.0535 15.9331C27.0535 15.9605 27.0519 16.0091 27.0519 16.0428V19.7232C27.0513 19.8151 27.0756 19.9055 27.1222 19.9852C27.1688 20.0648 27.236 20.1307 27.3169 20.1762L31.2589 22.4217L29.8942 23.1992C29.8875 23.2036 29.8797 23.2062 29.8717 23.2069C29.8637 23.2076 29.8555 23.2064 29.8481 23.2033L26.5839 21.3423C25.887 20.944 25.3785 20.2894 25.1701 19.5218C24.9616 18.7543 25.0701 17.9365 25.4717 17.2478ZM36.6842 19.8222L32.7422 17.5764L34.1069 16.7992C34.1136 16.7949 34.1214 16.7922 34.1294 16.7915C34.1374 16.7908 34.1455 16.792 34.1529 16.7952L37.4172 18.6546C37.9173 18.9396 38.3247 19.3593 38.5918 19.8645C38.8589 20.3698 38.9745 20.9396 38.9253 21.5074C38.876 22.0751 38.6638 22.6173 38.3136 23.0704C37.9633 23.5234 37.4895 23.8687 36.9475 24.0656C36.9475 24.0379 36.9475 23.9893 36.9475 23.9556V20.2752C36.9483 20.1834 36.9243 20.0931 36.878 20.0135C36.8317 19.9339 36.7648 19.8679 36.6842 19.8222ZM38.0424 17.8051C38.0185 17.7906 37.9766 17.7657 37.9466 17.7487L34.7178 15.9085C34.6373 15.8622 34.5458 15.8377 34.4526 15.8377C34.3595 15.8377 34.2679 15.8622 34.1875 15.9085L30.2455 18.1543V16.5993C30.2451 16.5913 30.2466 16.5834 30.25 16.5762C30.2534 16.569 30.2586 16.5627 30.265 16.558L33.5289 14.7001C34.0289 14.4156 34.6008 14.2775 35.1774 14.3019C35.7541 14.3264 36.3118 14.5123 36.7853 14.838C37.2587 15.1638 37.6284 15.6158 37.8511 16.1412C38.0737 16.6667 38.1401 17.2438 38.0424 17.8051ZM29.5035 20.5768L28.1385 19.7992C28.1314 19.7957 28.1252 19.7905 28.1205 19.7841C28.1159 19.7776 28.113 19.7702 28.112 19.7623V16.0428C28.1123 15.4732 28.2772 14.9154 28.5871 14.4348C28.8972 13.9542 29.3395 13.5706 29.8624 13.3291C30.3852 13.0875 30.967 12.9979 31.5396 13.0707C32.1123 13.1435 32.6521 13.3758 33.0958 13.7403C33.0712 13.7535 33.0283 13.7769 32.9998 13.7939L29.7711 15.6341C29.6901 15.6795 29.6228 15.7454 29.5761 15.825C29.5295 15.9046 29.5052 15.9951 29.5058 16.087L29.5035 20.5768ZM30.2449 18.9996L32.0005 17.9991L33.7562 18.999V20.9994L32.0005 21.9993L30.2449 20.9994V18.9996Z" fill="#2D75DD"/>
<path d="M51.6562 19.3262V20.3994H46.2695V19.3262H51.6562ZM46.4746 15.0469V25H45.1553V15.0469H46.4746ZM52.8047 15.0469V25H51.4922V15.0469H52.8047ZM58.0273 25.1367C57.5124 25.1367 57.0452 25.0501 56.626 24.877C56.2113 24.6992 55.8535 24.4508 55.5527 24.1318C55.2565 23.8128 55.0286 23.4346 54.8691 22.9971C54.7096 22.5596 54.6299 22.0811 54.6299 21.5615V21.2744C54.6299 20.6729 54.7188 20.1374 54.8965 19.668C55.0742 19.194 55.3158 18.793 55.6211 18.4648C55.9264 18.1367 56.2728 17.8883 56.6602 17.7197C57.0475 17.5511 57.4486 17.4668 57.8633 17.4668C58.3919 17.4668 58.8477 17.5579 59.2305 17.7402C59.6178 17.9225 59.9346 18.1777 60.1807 18.5059C60.4268 18.8294 60.609 19.2122 60.7275 19.6543C60.846 20.0918 60.9053 20.5703 60.9053 21.0898V21.6572H55.3818V20.625H59.6406V20.5293C59.6224 20.2012 59.554 19.8822 59.4355 19.5723C59.3216 19.2624 59.1393 19.0072 58.8887 18.8066C58.638 18.6061 58.2962 18.5059 57.8633 18.5059C57.5762 18.5059 57.3118 18.5674 57.0703 18.6904C56.8288 18.8089 56.6214 18.9867 56.4482 19.2236C56.2751 19.4606 56.1406 19.75 56.0449 20.0918C55.9492 20.4336 55.9014 20.8278 55.9014 21.2744V21.5615C55.9014 21.9124 55.9492 22.2428 56.0449 22.5527C56.1452 22.8581 56.2887 23.127 56.4756 23.3594C56.667 23.5918 56.8971 23.7741 57.166 23.9062C57.4395 24.0384 57.7493 24.1045 58.0957 24.1045C58.5423 24.1045 58.9206 24.0133 59.2305 23.8311C59.5404 23.6488 59.8115 23.4049 60.0439 23.0996L60.8096 23.708C60.6501 23.9495 60.4473 24.1797 60.2012 24.3984C59.9551 24.6172 59.652 24.7949 59.292 24.9316C58.9365 25.0684 58.515 25.1367 58.0273 25.1367ZM63.7559 14.5V25H62.4844V14.5H63.7559ZM67.1602 14.5V25H65.8887V14.5H67.1602ZM68.8555 21.3838V21.2266C68.8555 20.6934 68.9329 20.1989 69.0879 19.7432C69.2428 19.2829 69.4661 18.8841 69.7578 18.5469C70.0495 18.2051 70.4027 17.9408 70.8174 17.7539C71.2321 17.5625 71.6969 17.4668 72.2119 17.4668C72.7314 17.4668 73.1986 17.5625 73.6133 17.7539C74.0326 17.9408 74.388 18.2051 74.6797 18.5469C74.9759 18.8841 75.2015 19.2829 75.3564 19.7432C75.5114 20.1989 75.5889 20.6934 75.5889 21.2266V21.3838C75.5889 21.917 75.5114 22.4115 75.3564 22.8672C75.2015 23.3229 74.9759 23.7217 74.6797 24.0635C74.388 24.4007 74.0348 24.665 73.6201 24.8564C73.21 25.0433 72.7451 25.1367 72.2256 25.1367C71.7061 25.1367 71.2389 25.0433 70.8242 24.8564C70.4095 24.665 70.054 24.4007 69.7578 24.0635C69.4661 23.7217 69.2428 23.3229 69.0879 22.8672C68.9329 22.4115 68.8555 21.917 68.8555 21.3838ZM70.1201 21.2266V21.3838C70.1201 21.7529 70.1634 22.1016 70.25 22.4297C70.3366 22.7533 70.4665 23.0404 70.6396 23.291C70.8174 23.5417 71.0384 23.7399 71.3027 23.8857C71.5671 24.027 71.8747 24.0977 72.2256 24.0977C72.5719 24.0977 72.875 24.027 73.1348 23.8857C73.3991 23.7399 73.6178 23.5417 73.791 23.291C73.9642 23.0404 74.0941 22.7533 74.1807 22.4297C74.2718 22.1016 74.3174 21.7529 74.3174 21.3838V21.2266C74.3174 20.862 74.2718 20.5179 74.1807 20.1943C74.0941 19.8662 73.9619 19.5768 73.7842 19.3262C73.611 19.071 73.3923 18.8704 73.1279 18.7246C72.8682 18.5788 72.5628 18.5059 72.2119 18.5059C71.8656 18.5059 71.5602 18.5788 71.2959 18.7246C71.0361 18.8704 70.8174 19.071 70.6396 19.3262C70.4665 19.5768 70.3366 19.8662 70.25 20.1943C70.1634 20.5179 70.1201 20.862 70.1201 21.2266ZM78.6787 15.0469L78.5898 22.1904H77.4482L77.3525 15.0469H78.6787ZM77.3115 24.3643C77.3115 24.1592 77.373 23.986 77.4961 23.8447C77.6237 23.7035 77.8105 23.6328 78.0566 23.6328C78.2982 23.6328 78.4827 23.7035 78.6104 23.8447C78.7425 23.986 78.8086 24.1592 78.8086 24.3643C78.8086 24.5602 78.7425 24.7288 78.6104 24.8701C78.4827 25.0114 78.2982 25.082 78.0566 25.082C77.8105 25.082 77.6237 25.0114 77.4961 24.8701C77.373 24.7288 77.3115 24.5602 77.3115 24.3643ZM88.1328 15.9287L84.8379 25H83.4912L87.2852 15.0469H88.1533L88.1328 15.9287ZM90.8945 25L87.5928 15.9287L87.5723 15.0469H88.4404L92.248 25H90.8945ZM90.7236 21.3154V22.3955H85.1318V21.3154H90.7236ZM97.6963 23.0381C97.6963 22.8558 97.6553 22.6872 97.5732 22.5322C97.4958 22.3727 97.334 22.2292 97.0879 22.1016C96.8464 21.9694 96.4818 21.8555 95.9941 21.7598C95.584 21.6732 95.2126 21.5706 94.8799 21.4521C94.5518 21.3337 94.2715 21.1901 94.0391 21.0215C93.8112 20.8529 93.6357 20.6546 93.5127 20.4268C93.3896 20.1989 93.3281 19.9323 93.3281 19.627C93.3281 19.3353 93.3919 19.0596 93.5195 18.7998C93.6517 18.54 93.8363 18.3099 94.0732 18.1094C94.3148 17.9089 94.6042 17.7516 94.9414 17.6377C95.2786 17.5238 95.6546 17.4668 96.0693 17.4668C96.6618 17.4668 97.1676 17.5716 97.5869 17.7812C98.0062 17.9909 98.3275 18.2712 98.5508 18.6221C98.7741 18.9684 98.8857 19.3535 98.8857 19.7773H97.6211C97.6211 19.5723 97.5596 19.374 97.4365 19.1826C97.318 18.9867 97.1426 18.8249 96.9102 18.6973C96.6823 18.5697 96.402 18.5059 96.0693 18.5059C95.7184 18.5059 95.4336 18.5605 95.2148 18.6699C95.0007 18.7747 94.8434 18.9092 94.7432 19.0732C94.6475 19.2373 94.5996 19.4105 94.5996 19.5928C94.5996 19.7295 94.6224 19.8525 94.668 19.9619C94.7181 20.0667 94.8047 20.1647 94.9277 20.2559C95.0508 20.3424 95.224 20.4245 95.4473 20.502C95.6706 20.5794 95.9554 20.6569 96.3018 20.7344C96.9079 20.8711 97.4069 21.0352 97.7988 21.2266C98.1908 21.418 98.4824 21.6527 98.6738 21.9307C98.8652 22.2087 98.9609 22.5459 98.9609 22.9424C98.9609 23.266 98.8926 23.5622 98.7559 23.8311C98.6237 24.0999 98.43 24.3324 98.1748 24.5283C97.9242 24.7197 97.6234 24.8701 97.2725 24.9795C96.9261 25.0843 96.5365 25.1367 96.1035 25.1367C95.4518 25.1367 94.9004 25.0205 94.4492 24.7881C93.998 24.5557 93.6562 24.2549 93.4238 23.8857C93.1914 23.5166 93.0752 23.127 93.0752 22.7168H94.3467C94.3649 23.0632 94.4652 23.3389 94.6475 23.5439C94.8298 23.7445 95.0531 23.888 95.3174 23.9746C95.5817 24.0566 95.8438 24.0977 96.1035 24.0977C96.4499 24.0977 96.7393 24.0521 96.9717 23.9609C97.2087 23.8698 97.3887 23.7445 97.5117 23.585C97.6348 23.4255 97.6963 23.2432 97.6963 23.0381ZM101.894 14.5V25H100.622V14.5H101.894ZM106.412 17.6035L103.186 21.0557L101.381 22.9287L101.278 21.582L102.57 20.0371L104.867 17.6035H106.412ZM105.257 25L102.618 21.4727L103.274 20.3447L106.747 25H105.257ZM115.552 23.7354V19.9277C115.552 19.6361 115.493 19.3831 115.374 19.1689C115.26 18.9502 115.087 18.7816 114.854 18.6631C114.622 18.5446 114.335 18.4854 113.993 18.4854C113.674 18.4854 113.394 18.54 113.152 18.6494C112.915 18.7588 112.729 18.9023 112.592 19.0801C112.46 19.2578 112.394 19.4492 112.394 19.6543H111.129C111.129 19.39 111.197 19.1279 111.334 18.8682C111.471 18.6084 111.667 18.3737 111.922 18.1641C112.182 17.9499 112.492 17.7812 112.852 17.6582C113.216 17.5306 113.622 17.4668 114.068 17.4668C114.606 17.4668 115.08 17.5579 115.49 17.7402C115.905 17.9225 116.229 18.1982 116.461 18.5674C116.698 18.932 116.816 19.39 116.816 19.9414V23.3867C116.816 23.6328 116.837 23.8949 116.878 24.1729C116.924 24.4508 116.99 24.6901 117.076 24.8906V25H115.757C115.693 24.8542 115.643 24.6605 115.606 24.4189C115.57 24.1729 115.552 23.945 115.552 23.7354ZM115.771 20.5156L115.784 21.4043H114.506C114.146 21.4043 113.825 21.4339 113.542 21.4932C113.259 21.5479 113.022 21.6322 112.831 21.7461C112.64 21.86 112.494 22.0036 112.394 22.1768C112.293 22.3454 112.243 22.5436 112.243 22.7715C112.243 23.0039 112.296 23.2158 112.4 23.4072C112.505 23.5986 112.662 23.7513 112.872 23.8652C113.086 23.9746 113.348 24.0293 113.658 24.0293C114.046 24.0293 114.387 23.9473 114.684 23.7832C114.98 23.6191 115.215 23.4186 115.388 23.1816C115.565 22.9447 115.661 22.7145 115.675 22.4912L116.215 23.0996C116.183 23.291 116.096 23.5029 115.955 23.7354C115.814 23.9678 115.625 24.1911 115.388 24.4053C115.155 24.6149 114.877 24.7904 114.554 24.9316C114.235 25.0684 113.875 25.1367 113.474 25.1367C112.972 25.1367 112.533 25.0387 112.154 24.8428C111.781 24.6468 111.489 24.3848 111.279 24.0566C111.074 23.724 110.972 23.3525 110.972 22.9424C110.972 22.5459 111.049 22.1973 111.204 21.8965C111.359 21.5911 111.582 21.3382 111.874 21.1377C112.166 20.9326 112.517 20.7777 112.927 20.6729C113.337 20.568 113.795 20.5156 114.301 20.5156H115.771ZM120.07 19.1826V25H118.806V17.6035H120.002L120.07 19.1826ZM119.77 21.0215L119.243 21.001C119.248 20.4951 119.323 20.028 119.469 19.5996C119.615 19.1667 119.82 18.7907 120.084 18.4717C120.348 18.1527 120.663 17.9066 121.027 17.7334C121.396 17.5557 121.804 17.4668 122.251 17.4668C122.616 17.4668 122.944 17.5169 123.235 17.6172C123.527 17.7129 123.775 17.8678 123.98 18.082C124.19 18.2962 124.35 18.5742 124.459 18.916C124.568 19.2533 124.623 19.6657 124.623 20.1533V25H123.352V20.1396C123.352 19.7523 123.295 19.4424 123.181 19.21C123.067 18.973 122.9 18.8021 122.682 18.6973C122.463 18.5879 122.194 18.5332 121.875 18.5332C121.561 18.5332 121.273 18.5993 121.014 18.7314C120.758 18.8636 120.537 19.0459 120.351 19.2783C120.168 19.5107 120.025 19.7773 119.92 20.0781C119.82 20.3743 119.77 20.6888 119.77 21.0215ZM128.622 24.2344L130.68 17.6035H132.033L129.066 26.1416C128.998 26.3239 128.907 26.5199 128.793 26.7295C128.684 26.9437 128.542 27.1465 128.369 27.3379C128.196 27.5293 127.986 27.6842 127.74 27.8027C127.499 27.9258 127.209 27.9873 126.872 27.9873C126.772 27.9873 126.644 27.9736 126.489 27.9463C126.334 27.9189 126.225 27.8962 126.161 27.8779L126.154 26.8525C126.191 26.8571 126.248 26.8617 126.325 26.8662C126.407 26.8753 126.464 26.8799 126.496 26.8799C126.783 26.8799 127.027 26.8411 127.228 26.7637C127.428 26.6908 127.597 26.5654 127.733 26.3877C127.875 26.2145 127.995 25.9753 128.096 25.6699L128.622 24.2344ZM127.111 17.6035L129.032 23.3457L129.36 24.6787L128.451 25.1436L125.73 17.6035H127.111ZM136.271 17.6035V18.5742H132.272V17.6035H136.271ZM133.626 15.8057H134.891V23.168C134.891 23.4186 134.929 23.6077 135.007 23.7354C135.084 23.863 135.185 23.9473 135.308 23.9883C135.431 24.0293 135.563 24.0498 135.704 24.0498C135.809 24.0498 135.918 24.0407 136.032 24.0225C136.151 23.9997 136.24 23.9814 136.299 23.9678L136.306 25C136.205 25.0319 136.073 25.0615 135.909 25.0889C135.75 25.1208 135.556 25.1367 135.328 25.1367C135.018 25.1367 134.733 25.0752 134.474 24.9521C134.214 24.8291 134.007 24.624 133.852 24.3369C133.701 24.0452 133.626 23.6533 133.626 23.1611V15.8057ZM139.02 14.5V25H137.755V14.5H139.02ZM138.719 21.0215L138.192 21.001C138.197 20.4951 138.272 20.028 138.418 19.5996C138.564 19.1667 138.769 18.7907 139.033 18.4717C139.298 18.1527 139.612 17.9066 139.977 17.7334C140.346 17.5557 140.754 17.4668 141.2 17.4668C141.565 17.4668 141.893 17.5169 142.185 17.6172C142.476 17.7129 142.725 17.8678 142.93 18.082C143.139 18.2962 143.299 18.5742 143.408 18.916C143.518 19.2533 143.572 19.6657 143.572 20.1533V25H142.301V20.1396C142.301 19.7523 142.244 19.4424 142.13 19.21C142.016 18.973 141.85 18.8021 141.631 18.6973C141.412 18.5879 141.143 18.5332 140.824 18.5332C140.51 18.5332 140.223 18.5993 139.963 18.7314C139.708 18.8636 139.487 19.0459 139.3 19.2783C139.118 19.5107 138.974 19.7773 138.869 20.0781C138.769 20.3743 138.719 20.6888 138.719 21.0215ZM146.84 17.6035V25H145.568V17.6035H146.84ZM145.473 15.6416C145.473 15.4365 145.534 15.2633 145.657 15.1221C145.785 14.9808 145.972 14.9102 146.218 14.9102C146.459 14.9102 146.644 14.9808 146.771 15.1221C146.904 15.2633 146.97 15.4365 146.97 15.6416C146.97 15.8376 146.904 16.0062 146.771 16.1475C146.644 16.2842 146.459 16.3525 146.218 16.3525C145.972 16.3525 145.785 16.2842 145.657 16.1475C145.534 16.0062 145.473 15.8376 145.473 15.6416ZM150.135 19.1826V25H148.87V17.6035H150.066L150.135 19.1826ZM149.834 21.0215L149.308 21.001C149.312 20.4951 149.387 20.028 149.533 19.5996C149.679 19.1667 149.884 18.7907 150.148 18.4717C150.413 18.1527 150.727 17.9066 151.092 17.7334C151.461 17.5557 151.869 17.4668 152.315 17.4668C152.68 17.4668 153.008 17.5169 153.3 17.6172C153.591 17.7129 153.84 17.8678 154.045 18.082C154.255 18.2962 154.414 18.5742 154.523 18.916C154.633 19.2533 154.688 19.6657 154.688 20.1533V25H153.416V20.1396C153.416 19.7523 153.359 19.4424 153.245 19.21C153.131 18.973 152.965 18.8021 152.746 18.6973C152.527 18.5879 152.258 18.5332 151.939 18.5332C151.625 18.5332 151.338 18.5993 151.078 18.7314C150.823 18.8636 150.602 19.0459 150.415 19.2783C150.233 19.5107 150.089 19.7773 149.984 20.0781C149.884 20.3743 149.834 20.6888 149.834 21.0215ZM161.4 17.6035H162.549V24.8428C162.549 25.4945 162.417 26.0505 162.152 26.5107C161.888 26.971 161.519 27.3197 161.045 27.5566C160.576 27.7982 160.033 27.9189 159.418 27.9189C159.163 27.9189 158.862 27.8779 158.516 27.7959C158.174 27.7184 157.837 27.584 157.504 27.3926C157.176 27.2057 156.9 26.9528 156.677 26.6338L157.34 25.8818C157.65 26.2555 157.973 26.5153 158.311 26.6611C158.652 26.807 158.99 26.8799 159.322 26.8799C159.723 26.8799 160.07 26.8047 160.361 26.6543C160.653 26.5039 160.879 26.2806 161.038 25.9844C161.202 25.6927 161.284 25.3327 161.284 24.9043V19.2305L161.4 17.6035ZM156.308 21.3838V21.2402C156.308 20.6751 156.374 20.1624 156.506 19.7021C156.643 19.2373 156.836 18.8385 157.087 18.5059C157.342 18.1732 157.65 17.918 158.01 17.7402C158.37 17.5579 158.775 17.4668 159.227 17.4668C159.691 17.4668 160.097 17.5488 160.443 17.7129C160.794 17.8724 161.09 18.1071 161.332 18.417C161.578 18.7223 161.772 19.0915 161.913 19.5244C162.054 19.9574 162.152 20.4473 162.207 20.9941V21.623C162.157 22.1654 162.059 22.653 161.913 23.0859C161.772 23.5189 161.578 23.888 161.332 24.1934C161.09 24.4987 160.794 24.7334 160.443 24.8975C160.092 25.057 159.682 25.1367 159.213 25.1367C158.771 25.1367 158.37 25.0433 158.01 24.8564C157.654 24.6696 157.349 24.4076 157.094 24.0703C156.839 23.7331 156.643 23.3366 156.506 22.8809C156.374 22.4206 156.308 21.9215 156.308 21.3838ZM157.572 21.2402V21.3838C157.572 21.7529 157.609 22.0993 157.682 22.4229C157.759 22.7464 157.875 23.0312 158.03 23.2773C158.19 23.5234 158.393 23.7171 158.639 23.8584C158.885 23.9951 159.179 24.0635 159.521 24.0635C159.94 24.0635 160.286 23.9746 160.56 23.7969C160.833 23.6191 161.049 23.3844 161.209 23.0928C161.373 22.8011 161.501 22.4844 161.592 22.1426V20.4951C161.542 20.2445 161.464 20.0029 161.359 19.7705C161.259 19.5335 161.127 19.3239 160.963 19.1416C160.803 18.9548 160.605 18.8066 160.368 18.6973C160.131 18.5879 159.853 18.5332 159.534 18.5332C159.188 18.5332 158.889 18.6061 158.639 18.752C158.393 18.8932 158.19 19.0892 158.03 19.3398C157.875 19.5859 157.759 19.873 157.682 20.2012C157.609 20.5247 157.572 20.8711 157.572 21.2402Z" fill="#0D0E11"/>
</svg>
