<svg width="97" height="28" viewBox="0 0 97 28" fill="none" xmlns="http://www.w3.org/2000/svg">
<g id="hubby">
<path d="M16.8275 21.4569H13.1754V11.4539C13.1754 10.9796 13.0537 10.6215 12.8102 10.3797C12.5668 10.1286 12.2016 10.003 11.7146 10.003H5.1269V6.37569H11.7146C12.0611 6.37569 12.4263 6.41754 12.8102 6.50125C13.1942 6.57565 13.5734 6.69656 13.948 6.86398C14.3319 7.03139 14.6971 7.24996 15.0436 7.51968C15.3901 7.7801 15.6944 8.10098 15.9566 8.48231C16.2188 8.85434 16.4295 9.28683 16.5887 9.77977C16.7479 10.2727 16.8275 10.8308 16.8275 11.4539V21.4569ZM3.65204 21.4569H0V0H3.65204V21.4569Z" fill="white"/>
<path d="M36.7732 19.6293C36.7732 19.8897 36.7264 20.1315 36.6328 20.3548C36.5391 20.578 36.408 20.7733 36.2395 20.9407C36.0803 21.0988 35.8883 21.2244 35.6636 21.3174C35.4482 21.4104 35.2141 21.4569 34.9613 21.4569H26.702C26.2525 21.4569 25.7703 21.4057 25.2553 21.3034C24.7496 21.2011 24.2486 21.0384 23.7523 20.8151C23.256 20.5826 22.7737 20.2943 22.3055 19.9502C21.8467 19.5967 21.444 19.1736 21.0975 18.6806C20.7511 18.1784 20.4701 17.6017 20.2548 16.9507C20.0488 16.2996 19.9458 15.5649 19.9458 14.7464V6.37569H23.5978V14.7464C23.5978 15.2207 23.6774 15.6486 23.8366 16.0299C24.0051 16.4019 24.2299 16.7228 24.5108 16.9925C24.7917 17.2622 25.1195 17.4715 25.494 17.6203C25.878 17.7598 26.29 17.8296 26.7301 17.8296H33.1212V6.37569H36.7732V19.6293Z" fill="white"/>
<path d="M56.9437 16.3647C56.9437 16.7089 56.9016 17.0716 56.8173 17.4529C56.7424 17.8342 56.6207 18.2156 56.4521 18.5969C56.2835 18.9689 56.0635 19.327 55.7919 19.6712C55.5297 20.0153 55.2067 20.3222 54.8227 20.5919C54.4482 20.8524 54.0127 21.0616 53.5164 21.2197C53.0201 21.3778 52.4583 21.4569 51.8309 21.4569H45.2431C44.8967 21.4569 44.5315 21.4197 44.1475 21.3453C43.7636 21.2616 43.3797 21.136 42.9957 20.9686C42.6212 20.8012 42.2606 20.5873 41.9142 20.3269C41.5677 20.0571 41.2587 19.7363 40.9871 19.3642C40.7249 18.9829 40.5142 18.5458 40.355 18.0528C40.1958 17.5506 40.1162 16.9879 40.1162 16.3647V0H43.7683V16.3647C43.7683 16.8112 43.9087 17.1692 44.1897 17.439C44.4706 17.6994 44.8218 17.8296 45.2431 17.8296H51.8309C52.2897 17.8296 52.6455 17.6947 52.8984 17.425C53.1606 17.1553 53.2917 16.8019 53.2917 16.3647V11.4539C53.2917 10.9982 53.1559 10.6447 52.8843 10.3936C52.6128 10.1332 52.2616 10.003 51.8309 10.003H45.2431V6.37569H51.8309C52.1773 6.37569 52.5425 6.41754 52.9265 6.50125C53.3104 6.57565 53.6897 6.69656 54.0642 6.86398C54.4482 7.03139 54.8134 7.24996 55.1598 7.51968C55.5063 7.7801 55.8106 8.10098 56.0728 8.48231C56.335 8.85434 56.5457 9.28683 56.7049 9.77977C56.8641 10.2727 56.9437 10.8308 56.9437 11.4539V16.3647Z" fill="white"/>
<path d="M76.8052 16.3647C76.8052 16.7089 76.7631 17.0716 76.6788 17.4529C76.6039 17.8342 76.4821 18.2156 76.3136 18.5969C76.145 18.9689 75.925 19.327 75.6534 19.6712C75.3912 20.0153 75.0681 20.3222 74.6842 20.5919C74.3096 20.8524 73.8742 21.0616 73.3779 21.2197C72.8816 21.3778 72.3197 21.4569 71.6923 21.4569H65.1046C64.7581 21.4569 64.3929 21.4197 64.009 21.3453C63.6251 21.2616 63.2411 21.136 62.8572 20.9686C62.4826 20.8012 62.1221 20.5873 61.7756 20.3269C61.4292 20.0571 61.1202 19.7363 60.8486 19.3642C60.5864 18.9829 60.3757 18.5458 60.2165 18.0528C60.0573 17.5506 59.9777 16.9879 59.9777 16.3647V0H63.6298V16.3647C63.6298 16.8112 63.7702 17.1692 64.0511 17.439C64.3321 17.6994 64.6832 17.8296 65.1046 17.8296H71.6923C72.1512 17.8296 72.507 17.6947 72.7599 17.425C73.022 17.1553 73.1532 16.8019 73.1532 16.3647V11.4539C73.1532 10.9982 73.0174 10.6447 72.7458 10.3936C72.4742 10.1332 72.1231 10.003 71.6923 10.003H65.1046V6.37569H71.6923C72.0388 6.37569 72.404 6.41754 72.7879 6.50125C73.1719 6.57565 73.5511 6.69656 73.9257 6.86398C74.3096 7.03139 74.6748 7.24996 75.0213 7.51968C75.3678 7.7801 75.6721 8.10098 75.9343 8.48231C76.1965 8.85434 76.4072 9.28683 76.5664 9.77977C76.7256 10.2727 76.8052 10.8308 76.8052 11.4539V16.3647Z" fill="white"/>
<path d="M96.6667 22.9078C96.6667 23.531 96.5871 24.089 96.4279 24.582C96.2687 25.0842 96.058 25.5213 95.7958 25.8934C95.5336 26.2747 95.2293 26.5956 94.8828 26.856C94.5363 27.1257 94.1711 27.3443 93.7872 27.5117C93.4126 27.6791 93.0334 27.8 92.6494 27.8744C92.2655 27.9581 91.9003 28 91.5538 28H84.9661V24.3727H91.5538C92.0407 24.3727 92.406 24.2471 92.6494 23.996C92.8929 23.7449 93.0146 23.3822 93.0146 22.9078V6.37569H96.6667V22.9078ZM91.5538 21.4569H84.9661C84.4417 21.4569 83.8798 21.3685 83.2805 21.1918C82.6906 21.0151 82.1381 20.7268 81.6231 20.3269C81.108 19.9176 80.682 19.3921 80.3449 18.7504C80.0077 18.0993 79.8392 17.3041 79.8392 16.3647V6.37569H83.4912V16.3647C83.4912 16.8391 83.6176 17.2018 83.8705 17.4529C84.1233 17.704 84.4979 17.8296 84.9942 17.8296H91.5538V21.4569Z" fill="white"/>
</g>
</svg>
