<svg width="24" height="24" viewBox="0 0 24 24" fill="none" xmlns="http://www.w3.org/2000/svg">
<path fill-rule="evenodd" clip-rule="evenodd" d="M3.84999 12C3.84999 9.99117 3.85026 8.4542 3.91138 7.26231C3.9733 6.05476 4.09505 5.30107 4.2892 4.81571C4.45861 4.39217 4.66918 4.20041 4.99557 4.07348C5.39629 3.91764 6.00384 3.85002 6.99999 3.85002C7.9738 3.85002 8.65323 3.91176 9.1281 4.01728C9.60146 4.12247 9.80448 4.25659 9.89895 4.35107C9.9832 4.43531 10.0546 4.56047 10.0991 4.82726C10.1476 5.11841 10.15 5.47846 10.15 6.00002C10.15 6.46947 10.5306 6.85002 11 6.85002C11.4694 6.85002 11.85 6.46947 11.85 6.00002L11.85 5.95746V5.95744C11.8501 5.49114 11.8501 4.99306 11.7759 4.54779C11.6954 4.06458 11.5168 3.56474 11.101 3.14898C10.6955 2.74345 10.1485 2.50258 9.49688 2.35777C8.84676 2.21329 8.02619 2.15002 6.99999 2.15002C5.99615 2.15002 5.1037 2.2074 4.37941 2.48907C3.58081 2.79964 3.04137 3.35788 2.71079 4.18434C2.40493 4.94898 2.27668 5.94529 2.21361 7.17524C2.14999 8.41574 2.14999 9.99586 2.14999 11.9755V11.9757V12V12.0243V12.0245C2.14999 14.0042 2.14999 15.5843 2.21361 16.8248C2.27668 18.0548 2.40493 19.0511 2.71079 19.8157C3.04137 20.6422 3.58081 21.2004 4.37941 21.511C5.1037 21.7926 5.99615 21.85 6.99999 21.85C8.02619 21.85 8.84676 21.7868 9.49688 21.6423C10.1485 21.4975 10.6955 21.2566 11.101 20.8511C11.5168 20.4353 11.6954 19.9355 11.7759 19.4523C11.8501 19.007 11.8501 18.5089 11.85 18.0426V18.0426L11.85 18C11.85 17.5306 11.4694 17.15 11 17.15C10.5306 17.15 10.15 17.5306 10.15 18C10.15 18.5216 10.1476 18.8816 10.0991 19.1728C10.0546 19.4396 9.9832 19.5647 9.89895 19.649C9.80448 19.7435 9.60146 19.8776 9.1281 19.9828C8.65323 20.0883 7.9738 20.15 6.99999 20.15C6.00384 20.15 5.39629 20.0824 4.99557 19.9266C4.66918 19.7996 4.45861 19.6079 4.2892 19.1843C4.09505 18.699 3.9733 17.9453 3.91138 16.7377C3.85026 15.5458 3.84999 14.0089 3.84999 12ZM17.601 7.39898C17.2691 7.06704 16.7309 7.06704 16.399 7.39898C16.067 7.73093 16.067 8.26912 16.399 8.60107L18.9479 11.15H11C10.5306 11.15 10.15 11.5306 10.15 12C10.15 12.4695 10.5306 12.85 11 12.85H18.9479L16.399 15.399C16.067 15.7309 16.067 16.2691 16.399 16.6011C16.7309 16.933 17.2691 16.933 17.601 16.6011L21.601 12.6011C21.933 12.2691 21.933 11.7309 21.601 11.399L17.601 7.39898Z" fill="white"/>
</svg>
