<svg width="172" height="200" viewBox="0 0 172 200" fill="none" xmlns="http://www.w3.org/2000/svg">
<rect x="57.5" width="114" height="114" rx="30" fill="#ECEDF7"/>
<rect x="0.5" y="45" width="114" height="114" rx="30" fill="#ACC7FF"/>
<rect x="77.5" y="33" width="75" height="10" rx="5" fill="white"/>
<rect x="77.5" y="55" width="75" height="10" rx="5" fill="white"/>
<rect x="77.5" y="77" width="75" height="10" rx="5" fill="white"/>
<path fill-rule="evenodd" clip-rule="evenodd" d="M127.839 184.242C136.295 175.512 141.5 163.614 141.5 150.5C141.5 123.714 119.786 102 93 102C66.2142 102 44.5 123.714 44.5 150.5C44.5 177.286 66.2142 199 93 199C100.384 199 107.382 197.35 113.646 194.399L125.555 199.414C128.696 200.736 131.952 197.773 130.952 194.516C129.764 190.646 128.721 187.187 127.839 184.242Z" fill="#2D75DD"/>
<path fill-rule="evenodd" clip-rule="evenodd" d="M93 122C88.1622 122 84.2403 125.922 84.2403 130.76V148.279C84.2403 153.117 88.1622 157.039 93 157.039C97.8378 157.039 101.76 153.117 101.76 148.279V130.76C101.76 125.922 97.8378 122 93 122ZM77.2326 145.655C79.1656 145.655 80.7326 147.222 80.7326 149.155C80.7326 155.405 85.1883 160.547 93 160.547C100.812 160.547 105.267 155.405 105.267 149.155C105.267 147.222 106.834 145.655 108.767 145.655C110.7 145.655 112.267 147.222 112.267 149.155C112.267 158.289 106.113 165.813 96.5 167.286V171.934H100.884C102.817 171.934 104.384 173.501 104.384 175.434C104.384 177.367 102.817 178.934 100.884 178.934H93.438H85.9923C84.0593 178.934 82.4923 177.367 82.4923 175.434C82.4923 173.501 84.0593 171.934 85.9923 171.934H89.5V167.286C79.8867 165.813 73.7326 158.289 73.7326 149.155C73.7326 147.222 75.2996 145.655 77.2326 145.655Z" fill="white"/>
</svg>
