<svg width="16" height="16" viewBox="0 0 16 16" fill="none" xmlns="http://www.w3.org/2000/svg">
<rect width="16" height="16" fill="#F5F5F5"/>
<g id="Wireframe - Email_inbox">
<rect width="1440" height="1024" transform="translate(-392 -156)" fill="#F4F3F7"/>
<g id="Group 624517">
<g id="Frame 29084">
<g id="fi-rs-refresh">
<g id="01 align center">
<path id="Vector" d="M14.6512 8.58337C14.5227 10.1033 13.8783 11.5335 12.8251 12.6369C11.7719 13.7402 10.3732 14.4503 8.8609 14.6494C7.34863 14.8484 5.81375 14.5244 4.51092 13.7312C3.20809 12.938 2.21561 11.7231 1.69815 10.2883C1.18069 8.85343 1.16935 7.28477 1.66601 5.84258C2.16267 4.40039 3.13747 3.17134 4.4287 2.35935C5.71992 1.54736 7.24995 1.20123 8.76494 1.37839C10.2799 1.55555 11.6888 2.24535 12.7579 3.33335H10.6765C10.4997 3.33335 10.3301 3.40359 10.2051 3.52861C10.0801 3.65364 10.0099 3.82321 10.0099 4.00002C10.0099 4.17683 10.0801 4.3464 10.2051 4.47143C10.3301 4.59645 10.4997 4.66669 10.6765 4.66669H13.4385C13.7668 4.66651 14.0816 4.53602 14.3137 4.30389C14.5459 4.07176 14.6764 3.75697 14.6765 3.42868V0.66667C14.6765 0.489858 14.6063 0.320288 14.4813 0.195263C14.3563 0.0702382 14.1867 0 14.0099 0V0C13.8331 0 13.6635 0.0702382 13.5385 0.195263C13.4134 0.320288 13.3432 0.489858 13.3432 0.66667V2.05201C12.0023 0.853823 10.2965 0.14299 8.5015 0.0344744C6.70655 -0.0740411 4.92747 0.426107 3.452 1.45403C1.97653 2.48195 0.890944 3.97754 0.370822 5.6989C-0.1493 7.42027 -0.0735474 9.26676 0.585828 10.9397C1.2452 12.6127 2.44965 14.0144 4.00436 14.918C5.55907 15.8216 7.37314 16.1743 9.15317 15.9191C10.9332 15.6639 12.5751 14.8158 13.8133 13.5118C15.0516 12.2078 15.8137 10.5242 15.9766 8.73337C15.9852 8.64054 15.9743 8.54692 15.9448 8.4585C15.9152 8.37007 15.8676 8.28877 15.8048 8.21978C15.7421 8.15079 15.6657 8.09562 15.5805 8.05779C15.4953 8.01996 15.4031 8.00029 15.3099 8.00004C15.1472 7.99808 14.9897 8.05673 14.8679 8.16456C14.7462 8.2724 14.6689 8.42169 14.6512 8.58337Z" fill="#0D0E11"/>
</g>
</g>
</g>
</g>
</g>
</svg>
