<svg width="24" height="24" viewBox="0 0 24 24" fill="none" xmlns="http://www.w3.org/2000/svg">
<path fill-rule="evenodd" clip-rule="evenodd" d="M6.60537 6.51369C8.19355 7.05866 9.85686 5.96481 10.1523 4.45566C10.334 3.67131 10.5472 3.32831 10.7588 3.15276C10.963 2.98331 11.3113 2.8499 12.0681 2.8499C12.6537 2.8499 12.9861 2.9972 13.2032 3.20121C13.4367 3.42064 13.6532 3.81461 13.7831 4.52733L13.7831 4.52733L13.7839 4.53179C13.9393 5.35906 14.5089 5.9829 15.1709 6.32801C15.8348 6.6741 16.6677 6.7831 17.4529 6.50667C17.4638 6.50282 17.4746 6.49876 17.4854 6.49447C18.2385 6.19422 18.6479 6.20015 18.8979 6.28459C19.1438 6.36764 19.4259 6.59071 19.7749 7.18195C20.1315 7.78626 20.1785 8.10871 20.1376 8.32677C20.0947 8.55505 19.9137 8.89261 19.2772 9.42079L19.2655 9.43063C17.9883 10.5298 17.9883 12.47 19.2655 13.5692L19.2772 13.579C19.9137 14.1072 20.0947 14.4448 20.1376 14.673C20.1785 14.8911 20.1315 15.2135 19.7749 15.8179C19.4279 16.4057 19.1416 16.6391 18.8818 16.7327C18.6166 16.8283 18.1994 16.8427 17.4486 16.5867C15.9258 16.0534 14.076 16.9607 13.7817 18.6707C13.6509 19.4304 13.4405 19.7311 13.2525 19.8766C13.0499 20.0336 12.6968 20.1499 11.9699 20.1499C11.2703 20.1499 10.9103 20.0197 10.6988 19.85C10.4938 19.6855 10.2861 19.3693 10.1574 18.6661C9.86052 16.959 8.01275 16.0539 6.49126 16.5867C5.74049 16.8427 5.3233 16.8283 5.05808 16.7327C4.79834 16.6391 4.51204 16.4057 4.16504 15.8179C4.16029 15.8098 4.15541 15.8018 4.15039 15.7939C3.84533 15.314 3.81342 14.9814 3.878 14.72C3.95058 14.4261 4.18745 14.0488 4.7567 13.5824L4.77249 13.5692C6.07171 12.4511 5.92902 10.5133 4.67803 9.52695C4.11043 8.97065 3.93322 8.61698 3.89204 8.36068C3.85285 8.11676 3.90914 7.78503 4.25594 7.19423C4.574 6.69771 4.86758 6.48707 5.15516 6.39848C5.46392 6.30337 5.90804 6.30471 6.60537 6.51369ZM12.0681 1.1499C11.1567 1.1499 10.3275 1.3015 9.67315 1.84454C9.02738 2.38042 8.70223 3.1743 8.49211 4.08974C8.48957 4.10079 8.48726 4.11188 8.48517 4.12302C8.37911 4.68772 7.70759 5.09955 7.14969 4.90314C7.13774 4.89893 7.1257 4.89499 7.11357 4.89132C6.25006 4.63007 5.42296 4.53716 4.65468 4.77382C3.86511 5.01705 3.2779 5.56381 2.81381 6.29393C2.8088 6.30182 2.80391 6.3098 2.79916 6.31785C2.3674 7.04936 2.08131 7.80723 2.21357 8.63037C2.34332 9.43791 2.84692 10.1205 3.52868 10.7806C3.55389 10.805 3.58058 10.8278 3.60861 10.8489C4.07858 11.2028 4.11427 11.886 3.66994 12.2751C2.96812 12.852 2.42399 13.5172 2.2276 14.3123C2.02343 15.1389 2.23349 15.9422 2.70805 16.6938C3.1449 17.4307 3.69105 18.0472 4.48191 18.3321C5.27117 18.6164 6.12879 18.507 7.04414 18.1942L7.04416 18.1943L7.05157 18.1917C7.68665 17.9681 8.38504 18.3907 8.48288 18.9591L8.48284 18.9591L8.48434 18.9673C8.65007 19.8765 8.98177 20.652 9.63502 21.1761C10.2821 21.6951 11.0996 21.8499 11.9699 21.8499C12.8131 21.8499 13.6375 21.7287 14.2935 21.2207C14.9641 20.7013 15.2934 19.9094 15.457 18.9591C15.5549 18.3907 16.2532 17.9681 16.8883 18.1917L16.8883 18.1917L16.8958 18.1942C17.8111 18.507 18.6687 18.6164 19.458 18.3321C20.2531 18.0457 20.8008 17.4241 21.2389 16.682C21.6672 15.9563 21.9636 15.1862 21.8083 14.3593C21.6554 13.5451 21.1035 12.8867 20.3696 12.2764C19.887 11.8564 19.887 11.1434 20.3696 10.7234C21.1035 10.1131 21.6554 9.45474 21.8083 8.64054C21.9636 7.81359 21.6672 7.04354 21.2389 6.31785C20.8028 5.57909 20.2508 4.94717 19.4419 4.67396C18.6426 4.40404 17.7828 4.54855 16.8749 4.90776C16.5837 5.00566 16.2451 4.97089 15.9567 4.82055C15.6628 4.6673 15.4965 4.43693 15.455 4.21969C15.2904 3.31855 14.9673 2.52609 14.3673 1.96234C13.7504 1.38261 12.9543 1.1499 12.0681 1.1499ZM9.85002 11.4999C9.85002 10.3125 10.8126 9.3499 12 9.3499C13.1874 9.3499 14.15 10.3125 14.15 11.4999C14.15 12.6873 13.1874 13.6499 12 13.6499C10.8126 13.6499 9.85002 12.6873 9.85002 11.4999ZM12 7.6499C9.87372 7.6499 8.15002 9.37361 8.15002 11.4999C8.15002 13.6262 9.87372 15.3499 12 15.3499C14.1263 15.3499 15.85 13.6262 15.85 11.4999C15.85 9.37361 14.1263 7.6499 12 7.6499Z" fill="white"/>
</svg>
