<svg width="206" height="180" viewBox="0 0 206 180" fill="none" xmlns="http://www.w3.org/2000/svg">
<ellipse cx="93" cy="86.1111" rx="86.6667" ry="86.1111" fill="#ECEDF7"/>
<rect x="46.3334" y="31.1111" width="93.3333" height="112" rx="10" fill="white"/>
<rect x="55.6667" y="44.1777" width="37.3333" height="8.4" rx="4.2" fill="#ECEDF7"/>
<rect x="55.6667" y="61.9111" width="74.6667" height="8.4" rx="4.2" fill="#ECEDF7"/>
<rect x="55.6667" y="79.6443" width="74.6667" height="8.4" rx="4.2" fill="#ECEDF7"/>
<rect x="55.6667" y="97.3777" width="74.6667" height="8.4" rx="4.2" fill="#ECEDF7"/>
<rect x="55.6667" y="115.111" width="74.6667" height="8.4" rx="4.2" fill="#ECEDF7"/>
<path fill-rule="evenodd" clip-rule="evenodd" d="M121.068 106.125C119.918 104.975 118.053 104.975 116.903 106.125C115.753 107.276 115.753 109.14 116.903 110.29L123.209 116.596L116.903 122.902C115.753 124.052 115.753 125.917 116.903 127.067C118.053 128.217 119.918 128.217 121.068 127.067L127.374 120.761L133.562 126.949C134.712 128.099 136.577 128.099 137.727 126.949C138.877 125.799 138.877 123.934 137.727 122.784L131.539 116.596L137.727 110.408C138.877 109.258 138.877 107.393 137.727 106.243C136.577 105.093 134.712 105.093 133.562 106.243L127.374 112.431L121.068 106.125Z" fill="#2D75DD"/>
<path fill-rule="evenodd" clip-rule="evenodd" d="M143.877 148.346C138.842 150.995 133.109 152.494 127.025 152.494C107.006 152.494 90.7778 136.265 90.7778 116.247C90.7778 96.2282 107.006 80 127.025 80C147.043 80 163.271 96.2282 163.271 116.247C163.271 123.964 160.86 131.118 156.748 136.996C157.081 137.245 157.399 137.52 157.701 137.822L184.915 165.037C188.338 168.46 188.338 174.01 184.915 177.433C181.492 180.856 175.943 180.856 172.52 177.433L145.305 150.218C144.734 149.647 144.258 149.016 143.877 148.346ZM153.386 116.247C153.386 130.806 141.584 142.608 127.025 142.608C112.466 142.608 100.663 130.806 100.663 116.247C100.663 101.688 112.466 89.8855 127.025 89.8855C141.584 89.8855 153.386 101.688 153.386 116.247Z" fill="#2D75DD"/>
<circle cx="159.667" cy="12.2223" r="5.55556" fill="#ECEDF7"/>
<circle cx="6.33339" cy="162.222" r="5.55556" fill="#ECEDF7"/>
<circle cx="25.2223" cy="162.222" r="5.55556" fill="#ECEDF7"/>
<rect x="173" y="6.66675" width="32.2222" height="11.1111" rx="5.55556" fill="#ECEDF7"/>
</svg>
