<svg width="88" height="88" viewBox="0 0 88 88" fill="none" xmlns="http://www.w3.org/2000/svg">
<circle cx="44" cy="44" r="44" fill="#ECEDF7"/>
<path d="M52.8275 54.4569H49.1754V44.4539C49.1754 43.9796 49.0537 43.6215 48.8102 43.3797C48.5668 43.1285 48.2016 43.003 47.7146 43.003H41.1269V39.3757H47.7146C48.0611 39.3757 48.4263 39.4175 48.8102 39.5012C49.1942 39.5757 49.5734 39.6966 49.948 39.864C50.3319 40.0314 50.6971 40.25 51.0436 40.5197C51.3901 40.7801 51.6944 41.101 51.9566 41.4823C52.2188 41.8543 52.4295 42.2868 52.5887 42.7798C52.7479 43.2727 52.8275 43.8308 52.8275 44.4539V54.4569ZM39.652 54.4569H36V33H39.652V54.4569Z" fill="#ACC7FF"/>
</svg>
