<svg width="24" height="24" viewBox="0 0 24 24" fill="none" xmlns="http://www.w3.org/2000/svg">
<g id="fi-rr-clip">
<path id="Vector" d="M19.7961 10.6098C19.6665 10.4801 19.4906 10.4073 19.3072 10.4073C19.1239 10.4073 18.948 10.4801 18.8183 10.6098L11.2862 18.1744C10.9651 18.4955 10.584 18.7502 10.1644 18.924C9.74492 19.0978 9.29528 19.1873 8.84119 19.1874C7.92411 19.1874 7.04457 18.8232 6.39605 18.1747C5.74753 17.5263 5.38316 16.6468 5.38309 15.7297C5.38303 14.8127 5.74727 13.9331 6.3957 13.2846L13.6906 5.95993C14.0807 5.57605 14.6067 5.36187 15.154 5.36403C15.7013 5.3662 16.2255 5.58453 16.6126 5.97148C16.9996 6.35842 17.218 6.88263 17.2203 7.42991C17.2226 7.9772 17.0086 8.50322 16.6248 8.89339L9.32986 16.2181C9.19829 16.3441 9.02314 16.4145 8.84095 16.4145C8.65875 16.4145 8.4836 16.3441 8.35204 16.2181C8.22239 16.0884 8.14957 15.9125 8.14957 15.7292C8.14957 15.5458 8.22239 15.3699 8.35204 15.2402L14.8469 8.71567C14.9728 8.58524 15.0425 8.41056 15.041 8.22925C15.0394 8.04793 14.9667 7.87449 14.8384 7.74627C14.7102 7.61805 14.5368 7.54533 14.3555 7.54375C14.1742 7.54218 13.9995 7.61188 13.8691 7.73785L7.37421 14.2624C7.18153 14.4551 7.02869 14.6838 6.92441 14.9355C6.82013 15.1872 6.76646 15.457 6.76646 15.7295C6.76646 16.002 6.82013 16.2718 6.92441 16.5235C7.02869 16.7752 7.18153 17.0039 7.37421 17.1966C7.76951 17.5738 8.2949 17.7842 8.84129 17.7842C9.38768 17.7842 9.91308 17.5738 10.3084 17.1966L17.6026 9.87121C18.2374 9.22 18.5901 8.34491 18.5843 7.43549C18.5785 6.52607 18.2146 5.65557 17.5715 5.01255C16.9284 4.36953 16.0578 4.00577 15.1484 4.00007C14.239 3.99437 13.3639 4.34719 12.7128 4.9821L5.41788 12.3068C4.51003 13.2146 4 14.4459 4 15.7298C4 17.0137 4.51003 18.2451 5.41788 19.1529C6.32573 20.0608 7.55705 20.5708 8.84095 20.5708C10.1248 20.5708 11.3562 20.0608 12.264 19.1529L19.7961 11.5904C19.8608 11.5261 19.912 11.4497 19.947 11.3656C19.982 11.2814 20 11.1912 20 11.1001C20 11.0089 19.982 10.9187 19.947 10.8346C19.912 10.7504 19.8608 10.674 19.7961 10.6098Z" fill="#0D0E11"/>
</g>
</svg>
